<svg width="577" height="111" viewBox="0 0 577 111" fill="none" xmlns="http://www.w3.org/2000/svg">
<path d="M551.37 67.373V91.8318L547.068 94.961L543.012 97.3877C541.363 98.2877 539.526 98.7485 537.664 98.7287C536.489 98.7033 535.332 98.4167 534.272 97.888C533.212 97.3593 532.273 96.6008 531.518 95.6635C529.551 93.1047 528.605 89.8582 528.875 86.5952C528.876 83.1187 529.987 79.7407 532.033 76.9903C534.08 74.2399 536.946 72.2724 540.184 71.3962L551.493 67.373H551.37ZM542.827 30.6529L513.387 43.7445V56.5167H529.306V42.148L535.452 39.6573C539.253 38.2687 543.375 38.1349 547.252 39.2742C548.491 39.8731 549.521 40.8544 550.203 42.0841C550.876 43.4862 551.313 44.9985 551.493 46.5544C551.607 48.6815 551.607 50.8135 551.493 52.9405V63.222L517.935 74.3977C515.579 76.43 513.69 78.9826 512.403 81.8695C511.337 84.5413 510.794 87.407 510.805 90.2992C510.656 93.076 511.133 95.8506 512.201 98.4011C513.268 100.952 514.895 103.207 516.952 104.987C521.483 108.558 527.065 110.386 532.747 110.16L551.186 96.6853V107.989H577V103.71H569.071V55.1757C569.156 51.2583 568.722 47.3473 567.781 43.5529C567.031 40.6705 565.494 38.0752 563.355 36.0811C560.994 34.0556 558.185 32.6729 555.181 32.0578C551.011 31.2165 546.767 30.8313 542.52 30.9084" fill="#2C2D87"/>
<path d="M115.671 107.729V103.45H106.267V33.0115H79.4083V37.2263H88.812V103.45H80.0229V107.729H115.671Z" fill="#2C2D87"/>
<path d="M152.857 107.727V103.448H146.096V52.3593L150.645 49.5494C152.891 47.9327 155.231 46.4611 157.651 45.143C159.843 43.9968 162.265 43.4058 164.719 43.4186C165.853 43.3788 166.982 43.5792 168.039 44.0074C169.096 44.4355 170.057 45.0826 170.866 45.9093C172.548 48.3788 173.332 51.3886 173.078 54.4027V103.448H166.932V107.727H201.412V103.448H191.701V53.9558C191.803 50.1821 191.472 46.4091 190.718 42.7162C190.164 40.1199 188.93 37.733 187.153 35.8191C185.516 33.9359 183.376 32.6021 181.007 31.9876C177.848 31.0609 174.578 30.6092 171.296 30.6464L146.711 46.9948V33.0094H119.668V37.4157H129.256V103.448H120.282V107.727H152.857Z" fill="#2C2D87"/>
<path d="M282.354 103.454H277.13L249.349 64.3709H240.56L272.09 37.23H280.941V32.9513H255.004V37.23H264.961L233.431 64.3709H231.771V0.701553H204.912V4.98024H214.316V103.454H205.22V107.733H239.331V103.454H231.771V68.3303L259.552 107.733H282.354V103.454Z" fill="#2C2D87"/>
<path d="M75.9057 76.9515H71.6648L62.1996 103.454H30.7925V4.98024H42.3474V0.701553H0V4.98024H11.5549V103.454H0V107.733H75.9057V76.9515Z" fill="#2C2D87"/>
<path d="M96.9205 20.4993C99.5179 20.4824 102.003 19.3985 103.834 17.4842C105.665 15.5698 106.693 12.9804 106.693 10.2815C106.709 8.93736 106.468 7.60336 105.985 6.35665C105.501 5.10995 104.784 3.97545 103.874 3.01901C102.965 2.06256 101.883 1.30326 100.689 0.785008C99.4951 0.26676 98.2142 -0.000106316 96.9205 3.17729e-08C94.323 -5.26813e-05 91.8309 1.06768 89.9885 2.97009C88.146 4.8725 87.1028 7.45502 87.0865 10.1538C87.0865 12.8638 88.1226 15.4627 89.9668 17.3789C91.8111 19.2951 94.3124 20.3716 96.9205 20.3716" fill="#2C2D87"/>
<path d="M321.754 107.729V103.45H312.35V33.0115H285.491V37.2263H294.895V103.45H286.106V107.729H321.754Z" fill="#2C2D87"/>
<path d="M303.065 20.5008C305.673 20.5008 308.174 19.4243 310.019 17.5081C311.863 15.5919 312.899 12.9929 312.899 10.283C312.883 7.58416 311.839 5.00163 309.997 3.09922C308.154 1.19681 305.662 0.129067 303.065 0.12912C300.527 0.212093 298.119 1.31851 296.353 3.21381C294.586 5.10912 293.599 7.64444 293.6 10.283C293.6 12.9819 294.627 15.5713 296.458 17.4857C298.289 19.4001 300.775 20.4839 303.372 20.5008" fill="#2C2D87"/>
<path d="M343.152 66.3516H388.695V59.9655C388.731 55.9411 388.171 51.9349 387.036 48.0872C386.022 44.6246 384.279 41.4398 381.934 38.7636C379.553 36.1262 376.634 34.0752 373.391 32.7606C369.461 31.2476 365.288 30.5321 361.099 30.6531C351.326 32.6494 342.367 37.6823 335.408 45.0858C328.858 52.7166 325.458 62.7171 325.942 72.9292C325.825 78.2985 326.81 83.6322 328.831 88.5751C330.621 92.9928 333.28 96.9734 336.637 100.262C339.888 103.418 343.712 105.871 347.884 107.478C352.221 109.196 356.827 110.062 361.467 110.032L388.818 93.6201L386.851 89.6608C384.039 91.4884 381.053 93.0079 377.939 94.1949C374.809 95.3861 371.5 95.9915 368.167 95.983C364.82 96.1083 361.488 95.4764 358.399 94.1311C355.311 92.7859 352.541 90.7594 350.281 88.1919C345.404 82.0574 342.808 74.3071 342.967 66.3516H343.152ZM370.134 61.9452H342.783V60.7955C342.782 54.8133 344.174 48.9196 346.839 43.6169C347.857 41.651 349.376 40.0148 351.23 38.8881C353.084 37.7614 355.202 37.1879 357.349 37.2308C359.436 36.976 361.546 37.4133 363.378 38.48C365.211 39.5468 366.672 41.1884 367.552 43.17C369.439 48.2999 370.296 53.7762 370.072 59.2629L370.134 61.9452Z" fill="#2C2D87"/>
<path d="M453.777 39.9144H466.069V89.4066C465.698 94.8556 467.201 100.265 470.31 104.669C472.265 106.626 474.612 108.11 477.183 109.015C479.755 109.921 482.486 110.225 485.184 109.906L506.081 98.2195L504.298 94.2601C502.313 95.3024 500.259 96.1985 498.152 96.9422C496.162 97.5847 494.09 97.9077 492.006 97.9C490.859 97.9647 489.712 97.7634 488.649 97.3105C487.586 96.8576 486.633 96.1647 485.86 95.2819C484.356 93.2378 483.613 90.6973 483.77 88.1293V39.8504H504.852V34.8056H483.77V13.0927H478.853L466.561 19.7982V34.4861H454.268L453.777 39.9144Z" fill="#2C2D87"/>
<path d="M438.771 32.5009C434.484 31.1819 430.027 30.5572 425.557 30.6489C418.287 32.1858 411.39 35.2265 405.274 39.5896C403.208 41.1713 401.533 43.2416 400.39 45.6292C399.246 48.0168 398.666 50.653 398.698 53.3197C398.506 57.5087 399.895 61.6103 402.57 64.7509C405.157 67.663 408.164 70.1405 411.482 72.0948L423.774 79.6943C425.68 80.9077 427.339 82.0572 428.753 83.0789C430.031 83.9312 431.207 84.9388 432.256 86.0804C433.136 87.0011 433.808 88.1134 434.223 89.3372C434.664 90.6937 434.872 92.1205 434.838 93.552C434.844 94.919 434.586 96.2733 434.079 97.5348C433.572 98.7962 432.827 99.9392 431.887 100.896C430.701 101.983 429.318 102.814 427.82 103.34C426.322 103.866 424.737 104.077 423.16 103.961C418.02 104.09 412.943 102.765 408.47 100.13L401.894 82.5042H398.083V102.748C399.866 103.866 401.713 104.868 403.615 105.75C405.621 106.581 407.673 107.285 409.761 107.857C411.92 108.509 414.117 109.021 416.337 109.39C418.511 109.763 420.71 109.955 422.914 109.964C430.417 108.617 437.548 105.588 443.811 101.088C446.08 99.3182 447.907 97.0083 449.137 94.3521C450.367 91.6958 450.964 88.7713 450.879 85.8249C451.067 81.8882 450.033 77.9929 447.929 74.7132C445.171 71.1292 441.715 68.1912 437.788 66.0919L425.495 58.5563C422.524 56.8811 419.741 54.8677 417.198 52.5534C416.295 51.6986 415.58 50.651 415.103 49.4827C414.626 48.3144 414.397 47.0529 414.432 45.7841C414.379 44.4946 414.618 43.2099 415.131 42.0341C415.643 40.8583 416.415 39.824 417.382 39.0147C419.565 37.2319 422.292 36.3252 425.065 36.4603C429.298 36.3115 433.506 37.1859 437.357 39.0147L444.303 56.0017H448.544V36.8434C445.671 35.1542 442.644 33.7639 439.509 32.6925" fill="#2C2D87"/>
</svg>
